PathFileType	4	(X/Y/Z)	C:/Users/opensim2020/Desktop/walking_exp_matlab/subject03_walking17_run.trc	
DataRate	CameraRate	NumFrames	NumMarkers	Units	OrigDataRate	OrigDataStartFrame	OrigNumFrames	
100.00	100.00	7	50	mm	100.00	253	132	
Frame#	Time	RTOE			LTHI			RWRB			LTIB			RELB			RUPA			RKNE			RTHI			RASI			RFRM			RWRA			RSHO			STRN			LFRM			CLAV			LWRB			LASI			RFHD			LFIN			LSHO			RTIB			LWRA			RBHD			LHEE			RANK			RHEE			C7			RFIN			LBHD			LUPA			LTOE			RBAK			LELB			LFHD			RPSI			LPSI			T10			LKNE			LANK			*39			*40			*41			*42			*43			*44			*45			*46			*47			*48			*49			
		X1	Y1	Z1	X2	Y2	Z2	X3	Y3	Z3	X4	Y4	Z4	X5	Y5	Z5	X6	Y6	Z6	X7	Y7	Z7	X8	Y8	Z8	X9	Y9	Z9	X10	Y10	Z10	X11	Y11	Z11	X12	Y12	Z12	X13	Y13	Z13	X14	Y14	Z14	X15	Y15	Z15	X16	Y16	Z16	X17	Y17	Z17	X18	Y18	Z18	X19	Y19	Z19	X20	Y20	Z20	X21	Y21	Z21	X22	Y22	Z22	X23	Y23	Z23	X24	Y24	Z24	X25	Y25	Z25	X26	Y26	Z26	X27	Y27	Z27	X28	Y28	Z28	X29	Y29	Z29	X30	Y30	Z30	X31	Y31	Z31	X32	Y32	Z32	X33	Y33	Z33	X34	Y34	Z34	X35	Y35	Z35	X36	Y36	Z36	X37	Y37	Z37	X38	Y38	Z38	X39	Y39	Z39	X40	Y40	Z40	X41	Y41	Z41	X42	Y42	Z42	X43	Y43	Z43	X44	Y44	Z44	X45	Y45	Z45	X46	Y46	Z46	X47	Y47	Z47	X48	Y48	Z48	X49	Y49	Z49	X50	Y50	Z50	

50	0.490	309.88629	109.56173	41.29690	93.26930	-299.36295	620.90094	470.68814	-294.93979	961.05505	111.58002	-560.20679	376.07758	498.16599	-417.61240	1150.83154	478.86349	-376.03207	1238.88916	378.47079	-73.56781	505.68210	417.38684	-174.59720	651.87372	363.31451	-190.13365	926.99384	484.57220	-347.56900	1046.44812	441.48233	-268.52078	996.29028	386.43130	-237.31798	1378.90088	260.88284	-112.37238	1163.99097	80.31998	-77.61074	1132.62854	256.20023	-151.90450	1334.11719	168.87540	-15.58341	1137.27209	135.17059	-165.88029	911.26819	312.46420	-196.94037	1624.70081	250.41071	18.59947	1146.40540	103.25799	-174.60783	1385.24658	381.80270	-62.05198	310.60144	194.19028	-55.90025	1165.74341	292.51260	-295.95755	1542.75171	171.12376	-781.30853	325.46570	335.02948	-31.45324	95.70802	277.53226	-67.84931	74.99309	219.88879	-274.99252	1402.12952	472.71967	-226.95580	932.81628	164.60532	-269.75995	1537.81226	1.77407	-149.40359	1215.09485	185.60901	-777.05206	138.92923	295.46872	-346.13748	1250.39038	-13.17004	-131.22325	1114.26868	183.62611	-166.15857	1620.13916	310.98090	-338.94650	974.49774	163.72040	-321.75983	967.62238	219.16034	-321.72748	1102.41821	122.78551	-369.79361	452.29007	138.52844	-747.77423	286.53336							211.72531	-273.23563	1650.10608																								 
51	0.500	308.22430	121.57622	36.11898	93.64526	-257.66235	614.83606	475.25891	-249.98595	951.45166	114.70966	-512.84961	374.60693	505.81226	-373.72293	1139.82520	485.36926	-335.27728	1229.12878	379.58179	-43.80769	499.88327	417.29932	-140.57030	650.44769	365.22125	-155.44965	924.95642	490.68704	-303.06119	1036.12378	445.45978	-224.67842	987.20148	389.29477	-202.04541	1373.09192	261.43564	-78.17207	1159.79126	81.52075	-47.26197	1116.90417	257.32834	-117.77710	1329.88745	167.92914	18.30031	1112.82617	135.95934	-131.65443	908.62408	313.69870	-162.81992	1620.89294	248.51971	55.32206	1114.32031	104.14832	-141.08183	1380.23206	382.60168	-40.29777	302.65329	196.78772	-19.78409	1141.37317	294.10486	-261.68066	1538.64807	174.17862	-736.04083	336.07385	333.84848	-22.01029	86.76993	280.65698	-62.03136	62.98415	222.24146	-240.56554	1398.39319	475.65903	-181.44209	924.24597	166.11110	-236.01906	1533.72168	1.71947	-121.43407	1209.52246	186.79959	-739.84814	149.69286	299.48553	-311.46698	1244.52893	-11.50892	-105.31430	1106.71643	184.70860	-132.55823	1616.34753	310.90854	-305.82993	969.61987	164.34639	-288.55090	961.45740	221.23700	-288.26440	1098.21484	123.09088	-320.88364	443.07513	141.13255	-704.26563	295.17093							213.43178	-239.27777	1646.05945																								 
52	0.510	306.07721	124.12411	33.66373	93.72036	-216.16974	607.91595	480.43719	-203.99800	941.07770	117.77900	-463.62930	372.45700	513.41565	-328.95819	1127.75378	491.82349	-293.87094	1218.19177	380.86542	-13.74119	492.41229	416.38187	-106.48186	647.35004	366.73074	-121.02060	922.55261	497.05783	-257.45029	1024.69958	448.62964	-180.33894	976.93634	392.12546	-166.58357	1366.42200	261.80957	-43.99286	1154.63245	82.13204	-17.24475	1099.55359	258.38828	-83.57726	1324.61816	165.33466	51.36500	1086.39319	136.53769	-97.66650	905.06824	315.08069	-128.44440	1616.34314	243.85030	91.54695	1080.22925	105.05137	-107.79271	1374.34473	382.51825	-19.69405	293.72922	197.97983	15.66073	1114.49219	295.75763	-227.39648	1533.73828	178.12328	-688.33301	345.43060	331.72427	-20.11595	79.02757	281.44031	-63.20134	52.87432	224.58412	-206.48712	1393.95605	477.80704	-135.29715	914.55127	167.68161	-202.14038	1528.75659	2.09532	-93.82856	1202.96899	185.70633	-698.65466	159.07959	303.81119	-276.97232	1238.28882	-9.67712	-80.06636	1098.08923	185.74156	-98.83103	1611.70862	310.83310	-272.99179	964.24158	164.45847	-255.91223	954.12073	223.47627	-254.85814	1093.47192	122.78380	-270.55063	433.58765	143.91414	-658.17603	303.41016							214.94585	-205.27727	1641.19580																								 
53	0.520	303.73013	122.67728	33.72529	93.42416	-174.10324	600.00781	484.59644	-157.14415	929.82214	120.28961	-412.54163	369.37613	521.02417	-283.32901	1114.89380	498.05231	-251.84146	1206.13611	381.05148	17.14682	484.27536	416.70242	-72.80727	641.96649	368.16776	-87.01820	919.55621	503.00095	-211.49579	1012.37048	452.78046	-135.02771	965.84198	395.03568	-131.08109	1358.94507	261.55695	-10.25965	1148.51599	81.72878	12.22512	1080.88049	259.21332	-49.32066	1318.66418	161.06966	83.51241	1058.65222	136.98148	-64.54436	900.52930	316.05356	-94.42194	1611.31287	237.12831	125.60255	1044.12866	105.78538	-74.77605	1367.69812	381.78134	-0.15835	286.51065	197.48535	50.12527	1085.64978	297.47037	-192.94652	1528.21228	182.91151	-638.62738	353.05246	329.43210	-19.79326	74.56001	281.39883	-65.20335	47.40482	226.95566	-173.00543	1388.98206	479.87027	-88.43589	904.16290	169.21642	-168.31502	1523.07312	3.01828	-66.70748	1195.52063	183.04662	-652.82031	166.90257	308.45572	-242.66196	1231.49561	-7.75445	-55.16206	1088.47510	186.67644	-65.18167	1606.57886	311.14313	-240.76802	958.50128	165.00835	-223.74814	946.27417	225.66125	-221.69412	1088.09656	123.17332	-219.44199	422.91510	146.84660	-609.65930	310.71707							216.53397	-171.80998	1635.71802																								 
54	0.530	302.87286	123.93507	33.64376	93.23219	-131.39679	591.37213	488.68951	-109.44234	918.14697	121.95869	-359.99673	366.39352	528.51190	-236.88861	1101.33496	503.81223	-209.09041	1192.92883	379.58289	48.47012	476.55963	418.76523	-40.61979	634.29669	369.59763	-53.88243	915.93207	508.77728	-164.40022	999.52191	456.08447	-88.46022	954.72040	398.02832	-95.61896	1351.05066	261.87198	23.47676	1141.96655	80.45420	40.96514	1061.15894	260.03003	-14.88252	1312.30505	155.06815	114.62945	1030.49646	137.58939	-32.17031	894.95612	317.37662	-60.02154	1606.61426	227.82556	157.63918	1007.00232	106.00264	-42.30004	1360.89075	379.87384	19.16379	282.19836	195.19351	83.11531	1055.55896	299.25250	-158.40039	1522.54993	187.83641	-587.49542	358.59476	326.46436	-15.93006	72.58332	278.93945	-63.96160	45.93551	229.59105	-139.59279	1383.30481	481.29172	-40.61533	893.83813	170.84525	-134.54063	1517.17261	4.57935	-40.13732	1186.94604	179.52069	-602.22748	172.69130	313.04340	-208.67853	1224.30237	-5.76877	-31.05341	1078.36328	187.27069	-31.68668	1601.67688	312.36813	-209.05466	952.52844	165.77992	-192.74467	938.10486	227.73190	-188.72256	1082.11646	122.40105	-166.69720	413.54724	149.87654	-558.68060	316.78116							217.69847	-137.88495	1629.79883																								 
55	0.540	301.77979	124.58113	33.67791	93.28527	-87.99703	582.73206	491.60715	-61.30278	906.34143	123.13189	-305.90714	363.61710	535.94812	-189.60381	1087.40271	509.74454	-165.68265	1179.13953	377.52393	78.34099	469.34659	417.60040	-10.41416	626.70160	370.99911	-21.60016	911.56213	513.86652	-116.35783	986.61267	458.68112	-41.53128	943.91168	401.07047	-60.08872	1343.11670	261.17508	56.49919	1135.44226	78.44345	68.73628	1041.68396	260.70813	20.13632	1306.21875	147.67445	144.25011	1003.45422	138.43851	-0.90045	889.05304	318.19070	-26.01832	1602.50854	215.66391	187.46397	970.45752	105.47173	-9.96222	1354.21558	375.58481	41.09426	279.40970	191.56943	114.39403	1025.54968	301.15756	-123.64455	1517.21887	191.98073	-535.26331	361.82864	322.96353	-14.28078	73.55463	274.85764	-62.79820	46.58283	232.32481	-106.46958	1377.65601	482.11935	8.12014	884.27448	172.47681	-100.64006	1511.64661	6.65552	-14.12990	1177.43433	176.45706	-546.92914	176.06230	317.59396	-175.33258	1217.07617	-3.54033	-7.36965	1068.63525	187.80888	1.69779	1597.50659	314.35083	-177.40791	946.54004	166.76044	-162.51126	929.96228	229.99756	-156.45798	1076.37500	122.25348	-113.45018	405.02258	152.43695	-505.58350	321.05792							218.93541	-104.81374	1624.47925																								 
56	0.550	300.89731	124.78619	33.65152	93.65083	-42.76086	577.07336	493.96237	-11.18011	896.29694	123.81796	-250.48958	361.11551	542.54614	-141.32932	1073.67334	515.26172	-121.41544	1165.15076	374.16055	105.60793	464.13300	416.53973	17.00387	622.02356	372.54556	10.33747	906.42090	517.75146	-66.96999	974.48193	460.06412	6.65114	934.39063	404.04074	-24.64661	1335.96826	260.36932	89.05347	1130.71729	75.86452	94.85268	1023.61627	261.05991	55.05314	1301.14722	139.29292	171.59276	979.73657	139.45654	29.72980	883.34375	319.24741	8.35518	1599.57813	200.89389	214.44812	936.01703	104.35934	22.07497	1348.06580	371.65604	59.13331	276.59012	186.71579	143.05038	996.92505	303.05295	-88.94426	1512.99707	194.56453	-482.29498	362.67905	321.41684	-12.29463	74.26342	273.68744	-62.69823	47.74761	235.05725	-73.10003	1373.98584	481.65894	58.31360	876.41870	174.13815	-67.02577	1507.35254	9.02447	11.37865	1167.72229	174.62613	-487.38077	176.91631	321.73596	-142.23196	1210.06433	-0.82112	16.13361	1059.30200	188.36507	34.87182	1594.32764	316.80844	-145.26154	941.42249	168.04932	-132.66687	922.65820	232.29443	-124.41081	1073.00330	122.33182	-59.20398	399.03552	155.16469	-450.42856	323.19748							220.40851	-72.64426	1620.24597																								 
